<svg xmlns="http://www.w3.org/2000/svg" width="890.367" height="422.596"><defs><clipPath clipPathUnits="userSpaceOnUse" id="a"><path d="M149 330.59h709.827V451H149V330.59z"/></clipPath></defs><g clip-path="url(#a)" transform="matrix(3.51741 0 0 -3.51741 -524.095 1586.206)" fill="#00afec"><path d="M168.682 361.714c-5.418 0-9.8-4.677-9.8-10.99 0-6.093 4.382-10.774 9.8-10.774 5.426 0 9.81 4.83 9.81 10.774 0 6.088-4.384 10.99-9.81 10.99m19.615-30.01h-9.287v4.012c-2.897-3.193-7.056-4.827-11.66-4.827-10.107 0-18.35 8.913-18.35 19.907 0 11.067 8.096 20.13 19.682 20.13 11.517 0 19.615-9.063 19.615-20.13v-19.091zM212.518 330.814c-10.696 0-17.009 7.056-17.009 17.084v22.062h9.805v-22.359c0-2.154.74-7.278 7.204-7.278 4.31 0 7.431 3.043 7.431 7.278v22.36h9.805v-22.063c0-9.73-6.838-17.084-17.236-17.084M255.014 331.78c-11.221-1.19-17.162 5.57-17.162 16.044v31.867h9.802v-9.73h6.912v-8.69h-6.912v-13.522c0-5.348 2.45-7.352 7.36-7.057v-8.912zM287.705 350.723c0 6.61-4.234 11.214-9.434 11.214-5.2 0-9.434-4.605-9.434-11.214 0-6.465 4.234-10.922 9.434-10.922 5.2 0 9.434 4.457 9.434 10.922m9.88.072c0-11.439-8.692-19.98-19.314-19.98-10.623 0-19.242 8.541-19.242 19.98 0 11.441 8.62 20.132 19.242 20.132 10.622 0 19.313-8.69 19.313-20.132M303.675 386.971h9.88V347.75c0-5.422 2.452-7.352 7.28-7.057v-8.912c-11.215-1.19-17.16 5.496-17.16 15.97v39.222zM336.138 331.705h-9.806v38.256h9.806v-38.256zM363.995 361.714c-5.425 0-9.808-4.902-9.808-10.99 0-5.944 4.383-10.774 9.808-10.774 5.422 0 9.805 4.68 9.805 10.774 0 6.313-4.383 10.99-9.805 10.99m0-30.9c-11.59 0-19.688 8.914-19.688 19.982v36.176h9.88v-20.65c2.899 3.046 6.688 4.455 11.144 4.455 10.1 0 18.275-8.988 18.275-19.981 0-11.068-8.097-19.981-19.611-19.981M330.96 417.425c-8.5-.014-15.82-1.408-20.472-2.573-2.475 4.007-6.775 9.915-13.46 15.853-11.44 10.201-30.166 20.295-57.585 20.253-18.071.007-32.721-3.585-44.391-9.118-17.531-8.294-28.148-20.836-34.263-31.197-4.531-7.67-6.685-14.179-7.542-17.249h13.42c1.746 4.797 5.374 12.762 12.122 20.54 5.287 6.104 12.442 12.13 22.238 16.685 9.799 4.55 22.289 7.657 38.416 7.662 24.262-.04 39.474-8.589 49.065-17.027 4.77-4.23 8.075-8.463 10.154-11.585a45.715 45.715 0 002.23-3.697c.229-.427.388-.748.484-.946.045-.099.076-.166.095-.2l2.382-5.479 5.66 2.03c.375.146 9.968 3.394 21.447 3.373 7.57 0 15.789-1.385 23.043-5.534v14.054c-7.88 3.145-15.925 4.152-23.043 4.155M324.973 380.273a6.202 6.202 0 1012.405 0 6.202 6.202 0 00-12.405 0M387.827 364.132c2.357 2.112 4.145 6.584 3.658 10.485-2.846 1.138-4.145 2.926-4.145 5.934 0 3.74 2.844 6.42 6.665 6.42 4.796 0 8.127-3.818 8.127-9.266 0-8.127-6.34-15.28-14.305-16.094v2.521z"/></g></svg>